<svg xmlns="http://www.w3.org/2000/svg" version="1.1" xmlns:xlink="http://www.w3.org/1999/xlink" width="512" height="512" x="0" y="0" viewBox="0 0 7111 7111" style="enable-background:new 0 0 512 512" xml:space="preserve" fill-rule="evenodd" class=""><g><path d="M2145 5882c-18 0-36-4-52-12l-416-198 468 1027 467-1027-415 198c-17 8-35 12-52 12zm4829-3263H5047c-66 0-120-54-120-121V121c0-67 54-121 120-121h1927c67 0 121 54 121 121v2377c0 67-54 121-121 121zm-1806-242h1685V242H5168zM6542 776H5480c-67 0-121-54-121-121 0-66 54-120 121-120h1062c66 0 121 54 121 120 0 67-55 121-121 121zm0 436H5480c-67 0-121-54-121-121 0-66 54-120 121-120h1062c66 0 121 54 121 120 0 67-55 121-121 121zm0 436H5480c-67 0-121-54-121-121 0-66 54-120 121-120h1062c66 0 121 54 121 120 0 67-55 121-121 121zm0 436H5480c-67 0-121-54-121-121 0-66 54-120 121-120h1062c66 0 121 54 121 120 0 67-55 121-121 121zm-2854 52h-4c-586-2-1063-478-1064-1065v-6C2621 479 3098 2 3684 0h7c587 2 1065 480 1065 1068s-478 1066-1065 1068h-3zM3567 250c-359 53-644 338-697 697h92c67 0 121 54 121 121s-54 121-121 121h-92c53 359 338 644 697 697v-92c0-67 54-121 121-121 66 0 120 54 120 121v92c360-53 644-338 697-697h-92c-66 0-120-54-120-121s54-121 120-121h92c-53-359-337-644-697-697v92c0 67-54 121-120 121-67 0-121-54-121-121zm6 855c-3-9-5-18-6-28V662c0-66 54-120 121-120 66 0 120 54 120 120v356l163 163c47 47 47 124 0 171-23 23-54 35-85 35s-62-12-85-35l-199-198c0-1-1-2-2-3l-2-2-1-1-1-1-1-2h-1l-1-2h-1l-1-2v-1l-2-2-1-2h-1c0-1-1-2-1-3l-2-2c0-1-1-2-1-3l-2-2-1-2v-1l-1-2v-1l-1-2-1-1v-1l-1-2v-1l-1-2h-1v-3l-1-2zm1559 3258c-20 0-41-5-59-15l-428-236-429 236c-41 22-91 19-129-8-38-28-56-75-48-121l92-480-357-335c-34-32-46-81-32-125 15-45 54-77 100-83l485-61 208-442c20-43 63-70 110-70s89 27 109 70l208 442 485 61c47 6 86 38 100 83 15 44 2 93-32 125l-357 335 92 480c9 46-10 93-47 121-22 15-46 23-71 23zm-487-510c20 0 40 5 58 15l262 144-57-293c-7-41 6-82 36-111l218-204-296-37c-41-6-77-31-94-69l-127-270-127 270c-18 38-53 63-94 69l-297 37 218 204c30 29 44 70 36 111l-56 293 261-144c19-10 39-15 59-15zm1337 3258h-407c-58 0-108-41-119-98l-62-326c-91-37-176-86-254-146l-313 108c-55 19-116-3-145-53l-203-353c-29-50-19-114 25-152l251-217c-6-49-10-98-10-147s4-97 10-146l-251-217c-44-38-54-102-25-152l203-353c29-50 90-73 145-54l313 109c78-61 163-110 254-146l62-326c11-57 61-98 119-98h407c58 0 108 41 119 98l63 326c91 36 176 85 253 146l314-109c55-18 115 4 144 54l204 353c29 50 18 114-26 152l-251 217c7 49 10 97 10 146s-3 98-10 147l251 217c44 38 55 102 26 152l-204 353c-29 50-89 72-144 53l-314-108c-77 60-162 109-253 146l-63 326c-11 57-61 98-119 98zm-307-242h208l57-295c8-43 39-79 81-92 108-35 205-91 290-168 32-29 78-39 120-24l285 98 104-180-228-197c-33-28-48-73-39-116 12-55 18-111 18-168 0-56-6-112-18-167-9-43 6-88 39-117l228-197-104-180-285 99c-41 14-88 5-120-25-85-76-182-132-290-167-42-13-73-49-81-92l-57-296h-208l-57 296c-8 43-40 79-82 92-107 35-205 91-289 167-33 30-79 39-121 25l-284-99-104 180 227 197c34 29 49 74 39 117-11 55-17 111-17 167 0 57 6 113 17 168 10 43-5 88-39 116l-227 197 104 180 284-98c42-15 88-5 121 24 84 77 182 133 289 168 42 13 74 49 82 92zm104-611c-293 0-531-238-531-531 0-292 238-530 531-530 292 0 531 238 531 530 0 293-239 531-531 531zm0-820c-160 0-290 130-290 289 0 160 130 290 290 290 159 0 289-130 289-290 0-159-130-289-289-289zM1055 4013c-65-118-408-779-215-1391 8-30 67-223 228-414 158-189 450-414 940-414 80 0 164 7 250 19 68 4 647 55 935 456 65 9 162 41 240 142 147 189 154 526 23 1027-38 140-130 455-224 585l-106 477c-38 173-131 308-255 409l86 390h410c500 0 906 406 906 906v785c0 67-54 121-120 121H137c-67 0-121-54-121-121v-785c0-500 407-906 906-906h411l85-390c-124-101-217-236-255-409zm1945-60c7-185-17-672-197-860-47-49-98-71-163-71-34 0-73 6-114 20-76 44-471 259-915 262-32 6-191 42-281 176-75 109-90 262-46 453 2 6 4 12 4 18l111 497c29 133 110 236 218 309 2 1 4 3 6 4 146 97 339 142 522 142 182 0 376-45 521-142 2-1 4-3 6-4 108-73 189-175 219-309zm-360-1173c129 0 246 51 337 146 124 130 191 328 227 518 6-23 13-45 19-68 148-568 63-761 19-818-34-44-76-51-97-51h-3c-49 9-93-14-119-58-217-361-778-395-784-396-3 0-7 0-10-1-77-11-151-16-221-16-750 0-929 625-936 651 0 2-1 4-1 6-80 249-49 517 10 737 15-31 32-61 51-89 163-237 441-276 453-277 5-1 10-1 16-1 421 0 808-233 812-235 7-4 15-8 23-11 71-24 140-37 204-37zm-495 2365c-171 0-350-34-508-103l-69 310 577 275 576-275-68-310c-159 69-338 103-508 103zm-746 500-169 202 504 534zm1156 735 504-533-169-202zm-130 489h1016v-552c0-67 54-121 121-121 66 0 121 54 121 121v552h349v-664c0-366-298-664-665-664h-249l195 234c39 47 37 116-5 160zm-2167 0h349v-552c0-67 54-121 121-121 66 0 120 54 120 121v552h1016l-883-934c-42-44-44-113-5-160l196-234H922c-366 0-664 298-664 664z" fill="#000000" opacity="1" data-original="#000000" class=""></path></g></svg>