<svg xmlns="http://www.w3.org/2000/svg" version="1.1" xmlns:xlink="http://www.w3.org/1999/xlink" width="512" height="512" x="0" y="0" viewBox="0 0 512 512" style="enable-background:new 0 0 512 512" xml:space="preserve" class=""><g><path d="m473.688 301.998-39.021-67.584a7.999 7.999 0 0 0-4.029-3.456l-82.387-32.034a95.923 95.923 0 0 0 3.948-27.287c0-53.045-43.155-96.2-96.2-96.2s-96.2 43.155-96.2 96.2a95.917 95.917 0 0 0 3.948 27.287L81.36 230.958a7.999 7.999 0 0 0-4.029 3.456L38.31 301.998a7.998 7.998 0 0 0 4.029 11.456l33.919 13.189v110.08a8 8 0 0 0 5.102 7.456l171.739 66.777a7.992 7.992 0 0 0 5.798 0l171.739-66.777a8 8 0 0 0 5.102-7.456v-110.08l33.919-13.189a7.997 7.997 0 0 0 4.647-4.802 7.99 7.99 0 0 0-.616-6.654zM256 91.437c44.223 0 80.2 35.978 80.2 80.2s-35.978 80.2-80.2 80.2-80.2-35.978-80.2-80.2 35.977-80.2 80.2-80.2zm0 176.4c38.118 0 71.129-22.285 86.689-54.511l63.135 25.026L256 296.608l-149.825-58.256 63.135-25.026c15.56 32.226 48.571 54.511 86.69 54.511zM56.831 301.921l30.926-53.564 156.651 60.911-30.926 53.565zm35.429 30.943 121.821 47.368a8.002 8.002 0 0 0 9.827-3.456L248 335.048v156.758L92.26 431.25zm327.48 98.386L264 491.806V335.048l24.092 41.729a8.001 8.001 0 0 0 9.827 3.456l121.821-47.368zm-121.222-68.417-30.927-53.565 156.652-60.911 30.926 53.564zm-62.423-139.23c5.538 0 10.75-2.162 14.675-6.087l62.364-62.363c8.103-8.104 8.103-21.29-.001-29.396-3.925-3.925-9.145-6.087-14.696-6.087s-10.771 2.162-14.697 6.087l-45.906 45.907-12.252-15.417a20.662 20.662 0 0 0-16.26-7.843 20.839 20.839 0 0 0-12.912 4.51c-8.96 7.125-10.454 20.211-3.332 29.17l26.103 32.848a20.827 20.827 0 0 0 16.914 8.671zm-29.73-58.165a4.71 4.71 0 0 1 2.956-1.035c1.465 0 2.826.656 3.734 1.798l17.83 22.438a8.001 8.001 0 0 0 11.92.68l52.247-52.248c.903-.904 2.105-1.401 3.384-1.401s2.479.498 3.382 1.4a4.793 4.793 0 0 1 .001 6.77l-62.363 62.363a4.67 4.67 0 0 1-3.363 1.4 4.762 4.762 0 0 1-3.955-2.057 7.715 7.715 0 0 0-.296-.397l-26.239-33.02a4.77 4.77 0 0 1 .762-6.691zM248 45.969V8.5a8 8 0 1 1 16 0v37.469a8 8 0 0 1-16 0zm-80.779-12.666a8 8 0 0 1 13.857-8l18.734 32.449a8 8 0 0 1-13.857 8zm-60.483 50.942a7.998 7.998 0 0 1 10.928-2.928l32.449 18.734a8 8 0 0 1-8 13.856l-32.449-18.734a8 8 0 0 1-2.928-10.928zm-23.98 85.286a8 8 0 0 1 8-8h37.468c4.419 0 8 3.582 8 8s-3.581 8-8 8H90.758a8 8 0 0 1-8-8zM311.624 59.857l18.734-32.449a7.998 7.998 0 0 1 10.928-2.928 8 8 0 0 1 2.929 10.928L325.48 67.857a7.998 7.998 0 0 1-10.929 2.928 8 8 0 0 1-2.927-10.928zm45.228 54.769a8 8 0 0 1 2.928-10.928l32.449-18.734a8 8 0 0 1 8 13.856l-32.449 18.734a7.996 7.996 0 0 1-10.928-2.928zm22.711 51.116h37.468c4.419 0 8 3.582 8 8s-3.581 8-8 8h-37.468a8 8 0 1 1 0-16z" fill="#B0C5E7" opacity="1" data-original="#B0C5E7" class=""></path></g></svg>