<svg xmlns="http://www.w3.org/2000/svg" width="500" height="500" viewBox="0 0 500 500" version="1.1"><path d="M 234.477 140.250 L 226.500 148.500 234.750 140.523 C 242.412 133.115, 243.456 132, 242.727 132 C 242.576 132, 238.864 135.713, 234.477 140.250 M 275.232 158 C 275.232 159.925, 275.438 160.713, 275.689 159.750 C 275.941 158.787, 275.941 157.213, 275.689 156.250 C 275.438 155.287, 275.232 156.075, 275.232 158 M 131 166.313 C 131 166.485, 132.463 167.948, 134.250 169.563 L 137.500 172.500 134.563 169.250 C 131.825 166.221, 131 165.540, 131 166.313 M 281.272 193 C 281.272 195.475, 281.467 196.488, 281.706 195.250 C 281.944 194.012, 281.944 191.988, 281.706 190.750 C 281.467 189.512, 281.272 190.525, 281.272 193 M 97.286 201.500 C 97.294 204.250, 97.488 205.256, 97.718 203.736 C 97.947 202.216, 97.941 199.966, 97.704 198.736 C 97.467 197.506, 97.279 198.750, 97.286 201.500 M 175.958 202.250 C 180.102 206.665, 181 207.459, 181 206.708 C 181 206.548, 178.863 204.410, 176.250 201.958 L 171.500 197.500 175.958 202.250 M 97.272 220 C 97.272 222.475, 97.467 223.488, 97.706 222.250 C 97.944 221.012, 97.944 218.988, 97.706 217.750 C 97.467 216.512, 97.272 217.525, 97.272 220 M 196.252 227.500 C 196.263 229.700, 196.468 230.482, 196.707 229.238 C 196.946 227.994, 196.937 226.194, 196.687 225.238 C 196.437 224.282, 196.241 225.300, 196.252 227.500 M 252.453 240.250 L 248.500 244.500 252.750 240.547 C 256.702 236.871, 257.460 236, 256.703 236 C 256.540 236, 254.627 237.912, 252.453 240.250 M 358.344 249.041 C 351.920 250.312, 344.441 253.877, 341.668 256.988 C 339.356 259.583, 339.303 259.846, 341 260.290 C 342.314 260.633, 343.044 262.111, 343.542 265.432 C 343.926 267.995, 344.022 270.311, 343.755 270.578 C 343.116 271.217, 334 268.770, 334 267.960 C 334 266.928, 330.273 267.528, 328.732 268.808 C 326.242 270.874, 320.852 283.817, 319.714 290.461 C 317.169 305.316, 322.899 320.946, 335.112 332.467 C 351.129 347.576, 372.019 351.813, 389.569 343.511 C 396.961 340.014, 397.497 339.100, 396.135 332.318 C 394.412 323.739, 394.228 323.970, 401.089 326.105 C 404.438 327.147, 407.612 328, 408.142 328 C 409.505 328, 414.633 316.621, 416.461 309.540 C 418.448 301.845, 418.424 290.809, 416.407 283.932 C 409.424 260.131, 382.888 244.185, 358.344 249.041 M 305.250 255.689 C 306.212 255.941, 307.788 255.941, 308.750 255.689 C 309.712 255.438, 308.925 255.232, 307 255.232 C 305.075 255.232, 304.288 255.438, 305.250 255.689 M 313.250 255.689 C 314.212 255.941, 315.788 255.941, 316.750 255.689 C 317.712 255.438, 316.925 255.232, 315 255.232 C 313.075 255.232, 312.288 255.438, 313.250 255.689 M 331.500 261 L 328.500 261.763 331.191 261.882 C 332.671 261.947, 334.160 261.550, 334.500 261 C 334.840 260.450, 334.979 260.053, 334.809 260.118 C 334.639 260.183, 333.150 260.580, 331.500 261 M 275.500 268.588 L 272.500 271.165 275.750 269.015 C 277.538 267.832, 279 266.669, 279 266.432 C 279 265.683, 278.577 265.944, 275.500 268.588 M 371.063 283.358 C 369.777 288.386, 368.417 292.848, 368.040 293.272 C 367.664 293.697, 362.303 295.272, 356.129 296.772 C 345.266 299.411, 344.949 299.565, 346.367 301.495 C 347.806 303.455, 347.981 303.460, 356.115 301.778 C 360.671 300.836, 364.594 300.261, 364.834 300.500 C 365.073 300.740, 364.228 304.538, 362.956 308.941 C 360.706 316.728, 360.693 317.003, 362.482 318.980 C 363.493 320.098, 364.528 320.805, 364.782 320.552 C 365.035 320.298, 366.875 315.261, 368.871 309.357 L 372.500 298.624 379.500 296.922 C 383.350 295.987, 387.811 294.920, 389.412 294.551 C 392.271 293.893, 392.290 293.846, 390.412 292.028 C 388.619 290.290, 388.073 290.265, 381.618 291.622 C 377.832 292.418, 374.489 292.823, 374.189 292.522 C 373.888 292.222, 374.430 289.394, 375.392 286.238 C 376.355 283.082, 377.347 279.772, 377.597 278.882 C 377.862 277.938, 377.082 276.629, 375.726 275.740 L 373.401 274.217 371.063 283.358 M 261.437 280.250 L 258.500 283.500 261.750 280.563 C 264.779 277.825, 265.460 277, 264.687 277 C 264.515 277, 263.052 278.462, 261.437 280.250 M 296.437 284.250 L 293.500 287.500 296.750 284.563 C 298.538 282.948, 300 281.485, 300 281.313 C 300 280.540, 299.175 281.221, 296.437 284.250 M 251 289.500 C 248.571 291.975, 246.809 294, 247.084 294 C 247.359 294, 249.571 291.975, 252 289.500 C 254.429 287.025, 256.191 285, 255.916 285 C 255.641 285, 253.429 287.025, 251 289.500 M 273.453 289.250 L 269.500 293.500 273.750 289.547 C 277.702 285.871, 278.460 285, 277.703 285 C 277.540 285, 275.627 286.913, 273.453 289.250 M 239.946 299.750 L 236.500 303.500 240.250 300.054 C 243.740 296.846, 244.460 296, 243.696 296 C 243.529 296, 241.842 297.688, 239.946 299.750 M 231.437 307.250 L 228.500 310.500 231.750 307.563 C 233.537 305.948, 235 304.485, 235 304.313 C 235 303.540, 234.175 304.221, 231.437 307.250 M 149 308.471 C 149 308.746, 151.700 310.334, 155 312 C 158.300 313.666, 161 314.804, 161 314.529 C 161 314.254, 158.300 312.666, 155 311 C 151.700 309.334, 149 308.196, 149 308.471 M 245.473 319.250 L 238.500 326.500 245.750 319.527 C 252.484 313.050, 253.457 312, 252.723 312 C 252.571 312, 249.308 315.262, 245.473 319.250 M 252.966 336.750 L 247.500 342.500 253.250 337.034 C 258.592 331.956, 259.458 331, 258.716 331 C 258.560 331, 255.972 333.587, 252.966 336.750 M 121.750 364.572 C 118.012 366.600, 118.239 367.445, 122 365.500 C 123.650 364.647, 125 363.735, 125 363.474 C 125 362.831, 124.893 362.867, 121.750 364.572 M 96.437 373.250 L 93.500 376.500 96.750 373.563 C 98.537 371.948, 100 370.485, 100 370.313 C 100 369.540, 99.175 370.221, 96.437 373.250 M 91.916 384.601 C 90.793 385.955, 89.485 389.849, 90.492 388.842 C 90.680 388.654, 90.758 388.210, 90.667 387.855 C 90.575 387.500, 91.357 386.263, 92.405 385.105 C 93.453 383.947, 94.070 383, 93.777 383 C 93.485 383, 92.647 383.720, 91.916 384.601 M 86.583 388.750 C 86.171 389.163, 85.308 389.500, 84.667 389.500 C 84.025 389.500, 83.500 390.012, 83.500 390.637 C 83.500 391.263, 82.375 392.687, 81 393.801 C 79.625 394.916, 78.784 396.113, 79.131 396.462 C 79.478 396.810, 80.437 396.420, 81.262 395.595 C 82.087 394.770, 83.113 394.411, 83.541 394.798 C 83.970 395.184, 83.997 394.938, 83.601 394.250 C 82.959 393.134, 84.065 392.549, 86.214 392.870 C 86.607 392.928, 86.635 392.194, 86.277 391.238 C 85.719 389.749, 85.855 389.687, 87.232 390.806 C 88.580 391.901, 88.803 391.865, 88.615 390.585 C 88.318 388.560, 87.506 387.827, 86.583 388.750" stroke="none" fill="#b4c5e5" fill-rule="evenodd"/><path d="M 278.689 110.435 C 247.864 123.892, 221.427 149.477, 208.815 178.056 C 201.977 193.553, 198.427 208.508, 196.367 230.500 L 195.711 237.500 194.499 233 C 191.856 223.182, 186.159 213.310, 178.203 204.759 C 175.616 201.979, 165.400 193.616, 155.500 186.175 C 127.935 165.455, 117.698 154.640, 113.399 141.696 L 111.679 136.518 109.296 143.509 C 94.605 186.598, 93.739 229.490, 106.921 261.156 C 115.560 281.907, 132.765 299.847, 154.500 310.767 C 157.800 312.425, 161.358 314.732, 162.407 315.893 C 164.094 317.761, 164.177 318.466, 163.123 321.983 C 162.431 324.294, 159.665 328.408, 156.519 331.806 C 152.052 336.632, 148.522 339.011, 136.303 345.434 C 117.602 355.266, 109.578 360.582, 101.994 368.166 C 95.636 374.524, 82.741 391.155, 82.408 393.428 C 82.288 394.244, 85.395 393.078, 90.356 390.445 C 104.112 383.144, 124.835 375.710, 143.026 371.552 C 146.616 370.731, 158.242 368.704, 168.862 367.047 C 200.898 362.049, 217.047 357.543, 235.650 348.414 C 245.251 343.703, 247.752 341.935, 253.650 335.692 C 257.418 331.703, 264.306 322.829, 268.959 315.970 C 283.249 294.903, 304.512 274.876, 320.500 267.424 C 331.202 262.436, 331.876 262.345, 333.054 265.725 C 333.850 268.008, 335.005 268.854, 338.663 269.832 C 341.196 270.510, 343.488 270.846, 343.755 270.578 C 344.022 270.311, 343.931 268.024, 343.552 265.495 C 343.003 261.839, 342.351 260.704, 340.367 259.949 C 338.994 259.428, 336.740 257.656, 335.358 256.014 C 333.976 254.371, 330.292 251.448, 327.172 249.518 C 324.053 247.589, 320.600 244.629, 319.500 242.942 C 312.428 232.095, 291.021 225.092, 275.089 228.414 C 271.162 229.233, 265.711 231.121, 262.976 232.610 C 258.272 235.170, 249.503 243.522, 245.768 249 C 244.112 251.429, 244.102 251.383, 245.433 247.403 C 248.170 239.220, 251.104 235.044, 259.524 227.345 C 269.566 218.164, 277.351 208.306, 279.485 202.072 C 281.621 195.829, 281.380 190.099, 278.449 177.482 C 275.056 162.870, 274.203 145.292, 276.390 135.035 C 277.983 127.567, 283.143 115.417, 287.056 109.921 C 289.788 106.084, 288.468 106.165, 278.689 110.435 M 302.500 255.659 C 297.542 256.717, 288.303 260.471, 282.985 263.588 C 275.770 267.817, 267.410 274.641, 249.879 290.611 C 213.033 324.175, 205.473 328.987, 161 347.180 C 134.875 357.867, 119.622 365.393, 107 373.823 C 96.036 381.146, 82.567 391.900, 83.363 392.696 C 83.617 392.951, 87.435 390.687, 91.847 387.665 C 113.306 372.968, 129.139 366.555, 168.752 356.511 C 199.865 348.623, 213.756 343.258, 229 333.244 C 239.018 326.663, 245.420 320.730, 256.745 307.532 C 282.128 277.949, 308.072 262.113, 331.410 261.960 C 337.411 261.921, 337.459 261.898, 334.717 260.410 C 327.574 256.537, 310.313 253.991, 302.500 255.659" stroke="none" fill="#14e3d4" fill-rule="evenodd"/></svg>