<svg xmlns="http://www.w3.org/2000/svg" version="1.1" xmlns:xlink="http://www.w3.org/1999/xlink" width="512" height="512" x="0" y="0" viewBox="0 0 511 512" style="enable-background:new 0 0 512 512" xml:space="preserve" class=""><g><path d="M413.477 341.91c-13.762 37.297-34.575 69.727-61.868 96.38-31.066 30.335-71.746 54.44-120.91 71.636a37.914 37.914 0 0 1-4.988 1.363c-2.234.441-4.508.68-6.762.711h-.441c-2.403 0-4.817-.242-7.211-.71-1.692-.34-3.352-.802-4.957-1.353-49.223-17.167-89.953-41.261-121.05-71.597-27.306-26.652-48.114-59.063-61.856-96.36C-1.555 274.168-.133 199.465 1.012 139.434l.02-.922c.23-4.957.378-10.164.46-15.914.418-28.23 22.863-51.586 51.098-53.16 58.867-3.286 104.406-22.485 143.316-60.41l.34-.313c6.461-5.926 14.602-8.832 22.703-8.711 7.813.101 15.594 3.004 21.824 8.71l.332.313c38.918 37.926 84.458 57.125 143.325 60.41 28.234 1.575 50.68 24.93 51.097 53.16.082 5.79.23 10.989.461 15.915l.012.39c1.14 60.145 2.555 134.996-22.523 203.008Zm0 0" style="stroke:none;fill-rule:nonzero;fill-opacity:1;" fill="#3eece0" data-original="#00dd80" class="" opacity="1"></path><path d="M413.477 341.91c-13.762 37.297-34.575 69.727-61.868 96.38-31.066 30.335-71.746 54.44-120.91 71.636a37.914 37.914 0 0 1-4.988 1.363c-2.234.441-4.508.68-6.762.711V.004c7.813.101 15.594 3.004 21.824 8.71l.332.313c38.918 37.926 84.458 57.125 143.325 60.41 28.234 1.575 50.68 24.93 51.097 53.16.082 5.79.23 10.989.461 15.915l.012.39c1.14 60.145 2.555 134.996-22.523 203.008Zm0 0" style="stroke:none;fill-rule:nonzero;fill-opacity:1;" fill="#3eece0" data-original="#00aa63" class="" opacity="1"></path><path d="M346.102 256c0 70.207-57.004 127.355-127.153 127.605h-.449c-70.355 0-127.605-57.246-127.605-127.605 0-70.355 57.25-127.602 127.605-127.602h.45c70.148.25 127.152 57.399 127.152 127.602Zm0 0" style="stroke:none;fill-rule:nonzero;fill-opacity:1;" fill="#ffffff" data-original="#ffffff" class=""></path><path d="M346.102 256c0 70.207-57.004 127.355-127.153 127.605V128.398c70.149.25 127.153 57.399 127.153 127.602Zm0 0" style="stroke:none;fill-rule:nonzero;fill-opacity:1;" fill="#e1ebf0" data-original="#e1ebf0" class=""></path><path d="m276.418 237.625-57.469 57.477-12.418 12.418a14.98 14.98 0 0 1-10.625 4.398 14.99 14.99 0 0 1-10.629-4.398l-26.699-26.711c-5.867-5.868-5.867-15.372 0-21.243 5.86-5.867 15.375-5.867 21.242 0l16.086 16.086 59.27-59.27c5.867-5.87 15.383-5.87 21.242 0 5.867 5.868 5.867 15.384 0 21.243Zm0 0" style="stroke:none;fill-rule:nonzero;fill-opacity:1;" fill="#b4d2d7" data-original="#b4d2d7" class="" opacity="1"></path><path d="m276.418 237.625-57.469 57.477v-42.497l36.227-36.222c5.867-5.871 15.383-5.871 21.242 0 5.867 5.867 5.867 15.383 0 21.242Zm0 0" style="stroke:none;fill-rule:nonzero;fill-opacity:1;" fill="#b4d2d7" data-original="#6fa5aa" class="" opacity="1"></path></g></svg>