<svg xmlns="http://www.w3.org/2000/svg" version="1.1" xmlns:xlink="http://www.w3.org/1999/xlink" width="512" height="512" x="0" y="0" viewBox="0 0 100 100" style="enable-background:new 0 0 512 512" xml:space="preserve" class=""><g><g stroke-linecap="round" stroke-linejoin="round" stroke-miterlimit="10"><path d="M50.176 2.14a8 8 0 0 0-6.014 1.284l-7.389 5.09a1 1 0 0 0-.255 1.39 1 1 0 0 0 1.39.256l7.39-5.09a6.008 6.008 0 0 1 8.39 1.543 1 1 0 0 0 0 .002l2.269 3.29a1 1 0 0 0 1.393.255 1 1 0 0 0 .254-1.39l-2.268-3.29-.002-.001a8.002 8.002 0 0 0-5.158-3.338zM43.39 89.684a1 1 0 0 0-.747.16 1 1 0 0 0-.254 1.39l2.27 3.291c2.516 3.645 7.535 4.56 11.179 2.055l7.38-5.09a1 1 0 0 0 .257-1.39 1 1 0 0 0-1.391-.256l-7.38 5.09a6.03 6.03 0 0 1-8.4-1.545l-2.27-3.29a1 1 0 0 0-.643-.415zM20.773 19.533l-12.23 8.43a1 1 0 0 0-.002.002c-3.633 2.517-4.56 7.533-2.053 11.17l14.03 20.36a1 1 0 0 0 1.39.255 1 1 0 0 0 .256-1.39L8.134 38a6.03 6.03 0 0 1 1.546-8.39l12.228-8.43a1 1 0 0 0 .256-1.39 1 1 0 0 0-1.39-.257zM78.842 40.104a1 1 0 0 0-.748.16 1 1 0 0 0-.256 1.39l14.02 20.34a1 1 0 0 0 0 .002 6.006 6.006 0 0 1-1.544 8.387l-12.22 8.42a1 1 0 0 0-.256 1.392 1 1 0 0 0 1.39.256l12.22-8.42c3.645-2.506 4.573-7.527 2.056-11.172l-14.02-20.34a1 1 0 0 0-.642-.415z" fill="#000000" opacity="1" data-original="#000000" class=""></path><path d="M28.371 8.338c-4.421 0-8.03 3.608-8.03 8.03v67.259c0 4.43 3.609 8.041 8.03 8.041h43.26c4.421 0 8.03-3.611 8.03-8.041v-50.27a1 1 0 0 0-1-1 1 1 0 0 0-1 1v50.27a6.02 6.02 0 0 1-6.03 6.041H28.37a6.02 6.02 0 0 1-6.03-6.041v-67.26c0-3.339 2.691-6.03 6.03-6.03h43.26c3.339 0 6.03 2.691 6.03 6.03v1.47a1 1 0 0 0 1 1 1 1 0 0 0 1-1v-1.47c0-4.421-3.609-8.03-8.03-8.03z" fill="#000000" opacity="1" data-original="#000000" class=""></path><path d="M30.957 17.953a1 1 0 0 0-1 1v42.09a1 1 0 0 0 1 1h38.084a1 1 0 0 0 1-1v-42.09a1 1 0 0 0-1-1zm1 2h36.084v40.09H31.957zM42.068 70.215a1 1 0 0 0-1 1v6.435l-4.572-6.984a1 1 0 0 0-1.836.549v9.79a1 1 0 0 0 1 1 1 1 0 0 0 1-1v-6.439l4.572 6.987a1 1 0 0 0 1.836-.547v-9.791a1 1 0 0 0-1-1zM57.38 70.215a1 1 0 0 0-1 1 1 1 0 0 0 1 1h6.96a1 1 0 0 0 1-1 1 1 0 0 0-1-1z" fill="#000000" opacity="1" data-original="#000000" class=""></path><path d="M60.86 70.215a1 1 0 0 0-1 1v9.79a1 1 0 0 0 1 1 1 1 0 0 0 1-1v-9.79a1 1 0 0 0-1-1zM47.781 70.215a1 1 0 0 0-1 1v9.79a1 1 0 0 0 1 1 1 1 0 0 0 1-1v-8.79h3.903a1 1 0 0 0 1-1 1 1 0 0 0-1-1z" fill="#000000" opacity="1" data-original="#000000" class=""></path><path d="M47.781 75.11a1 1 0 0 0-1 1 1 1 0 0 0 1 1h4.903a1 1 0 0 0 1-1 1 1 0 0 0-1-1zM39.402 32.9a1 1 0 0 0-.515.875v12.446a1 1 0 0 0 .467.845l10.115 6.35a1 1 0 0 0 1.062 0l10.115-6.35a1 1 0 0 0 .47-.845V33.775a1 1 0 0 0-1.532-.845L50 38.943l-9.582-6.013a1 1 0 0 0-1.016-.03zm19.713 2.684v10.084L50 51.388l-9.113-5.72V35.586l8.582 5.387a1 1 0 0 0 1.062 0z" fill="#000000" opacity="1" data-original="#000000" class=""></path><path d="m49.469 26.58-10.115 6.35a1 1 0 0 0 0 1.693l10.115 6.35a1 1 0 0 0 1.062 0l10.115-6.35a1 1 0 0 0 0-1.693l-10.115-6.35a1 1 0 0 0-1.062 0zM50 28.607l8.234 5.168L50 38.943l-8.232-5.168z" fill="#000000" opacity="1" data-original="#000000" class=""></path><path d="M50 39.125a1 1 0 0 0-1 1v12.443a1 1 0 0 0 1 1 1 1 0 0 0 1-1V40.125a1 1 0 0 0-1-1z" fill="#000000" opacity="1" data-original="#000000" class=""></path><path d="M39.402 32.9a1 1 0 0 0-.515.875v12.446a1 1 0 0 0 .467.845l10.115 6.35a1 1 0 0 0 1.062 0l10.115-6.35a1 1 0 0 0 .47-.845V33.775a1 1 0 0 0-1.532-.845L50 38.943l-9.582-6.013a1 1 0 0 0-1.016-.03zm19.713 2.684v10.084L50 51.388l-9.113-5.72V35.586l8.582 5.387a1 1 0 0 0 1.062 0z" fill="#000000" opacity="1" data-original="#000000" class=""></path><path d="m49.469 26.58-10.115 6.35a1 1 0 0 0 0 1.693l10.115 6.35a1 1 0 0 0 1.062 0l10.115-6.35a1 1 0 0 0 0-1.693l-10.115-6.35a1 1 0 0 0-1.062 0zM50 28.607l8.234 5.168L50 38.943l-8.232-5.168z" fill="#000000" opacity="1" data-original="#000000" class=""></path><path d="M50 39.125a1 1 0 0 0-1 1v12.443a1 1 0 0 0 1 1 1 1 0 0 0 1-1V40.125a1 1 0 0 0-1-1zM83.238 15.582c-5.518 0-10.011 4.496-10.011 10.014s4.493 10.013 10.011 10.013 10.014-4.495 10.014-10.013-4.496-10.014-10.014-10.014zm0 2c4.438 0 8.014 3.576 8.014 8.014s-3.576 8.013-8.014 8.013c-4.437 0-8.011-3.576-8.011-8.013s3.574-8.014 8.011-8.014z" fill="#000000" opacity="1" data-original="#000000" class=""></path><path d="M86.043 22.62a1 1 0 0 0-.707.292l-3.246 3.246-.947-.947a1 1 0 0 0-1.414 0 1 1 0 0 0 0 1.414l1.654 1.654a1 1 0 0 0 1.414 0l3.953-3.953a1 1 0 0 0 0-1.414 1 1 0 0 0-.707-.293z" fill="#000000" opacity="1" data-original="#000000" class=""></path></g></g></svg>